<svg xmlns="http://www.w3.org/2000/svg" viewBox="0 0 164 128" role="img" aria-labelledby="title desc">
  <title id="title">FashionTV</title>
  <desc id="desc">FashionTV source logo with only a white background added</desc>
  <rect width="164" height="128" rx="10" fill="#fff"/>
  <g transform="translate(0 2)" fill="#231f20">
    <path d="M137.1,48.5l-55.4,55.4L26.3,48.5l28.6-28.6h53.6L137.1,48.5z M81.7,95.4l46.8-46.8l-22.6-22.5H57.4L34.8,48.5L81.7,95.4z"/>
    <path d="M92.3,37.9c-0.9,0-1.7-0.3-2.2-0.9c-0.5-0.6-0.7-1.4-0.7-2.4c0-0.4,0.1-0.6,0.3-0.8c0.2-0.2,0.3-0.5,0.3-0.9c0-0.2-0.2-0.3-0.7-0.3c-0.5,0-0.8-0.1-1-0.1c-1.8,0-3.1,1-4.1,2.9c-1,2-1.6,4.8-1.6,8.4v8.2H89l-0.6,1.7h-6v25.1h5.9v1.7H71.4v-1.7H77V53.5h-5.5v-1.7H77v-3.6c0-3,0.3-5.8,0.9-7.9c0.6-2.2,1.5-4,2.5-5.4c1-1.5,2.3-2.4,3.8-3.1c1.5-0.6,3-1,4.8-1c0.7,0,1.5,0.1,2.2,0.2c0.7,0.2,1.4,0.4,1.9,0.8c0.6,0.4,1,0.8,1.4,1.5c0.3,0.6,0.5,1.3,0.5,2.2c0,0.7-0.3,1.3-0.8,1.8C93.5,37.7,92.9,37.9,92.3,37.9"/>
    <circle cx="101.5" cy="52.7" r="4.7"/>
  </g>
</svg>
