<?xml version="1.0" encoding="UTF-8"?>
<!-- Generator: Adobe Illustrator 24.3.0, SVG Export Plug-In . SVG Version: 6.00 Build 0)  -->
<svg version="1.1" id="Layer_1" xmlns="http://www.w3.org/2000/svg" xmlns:xlink="http://www.w3.org/1999/xlink" x="0px" y="0px" viewBox="0 0 617.3 122.7" style="enable-background:new 0 0 617.3 122.7;" xml:space="preserve">
<style type="text/css">
	.st0{fill:#FFFFFF;}
	.st1{fill:#FF0000;}
</style>
<g>
	<path class="st0" d="M180.6,31.8c-1.6,0-2.8-0.5-3.7-1.6s-1.3-2.4-1.3-4c0-0.6,0.1-1,0.5-1.4c0.3-0.3,0.5-0.8,0.5-1.6   c0-0.3-0.4-0.5-1.2-0.6c-0.7-0.1-1.4-0.1-1.8-0.1c-2.9,0-5.2,1.7-6.9,5c-1.7,3.4-2.6,8.1-2.6,14v13.6h9.7v2.7h-9.7V100h9.7v2.7   h-28.5V100h9.3V57.9h-9.3v-2.7h9.3v-5.9c0-5.1,0.5-9.5,1.5-13.2c1-3.7,2.4-6.7,4.2-9.1s4-4.1,6.4-5.2c2.4-1.2,5.1-1.7,8-1.7   c1.2,0,2.4,0.1,3.6,0.4s2.3,0.7,3.2,1.4c0.9,0.6,1.8,1.5,2.3,2.4c0.6,0.9,0.9,2.2,0.9,3.7c0,1.3-0.5,2.2-1.5,2.9   C182.6,31.4,181.7,31.8,180.6,31.8z M225.7,94.5h2c-0.1,2.8-1.2,5.1-3.1,7c-1.9,1.9-4.3,2.8-7.1,2.8c-2.2,0-4-0.6-5.3-2   c-1.3-1.4-2.1-3.1-2.5-5.3c-2.1,2.5-4.6,4.4-7.4,5.5c-2.8,1.2-5.8,1.8-8.8,1.8c-1.9,0-3.8-0.2-5.4-0.6c-1.7-0.4-3.1-1-4.4-2   s-2.3-2.1-3-3.6c-0.7-1.5-1.2-3.4-1.2-5.5c0.1-5.7,2.9-9.9,8.3-13c5.3-3,12.7-4.5,21.9-4.5V63.7c0-1.5-0.2-2.6-0.8-3.6   s-1.2-1.7-2-2.2c-0.8-0.5-1.7-0.9-2.7-1.3c-1-0.2-2.1-0.3-3.1-0.3c-0.6,0-1.6,0.1-2.8,0.2s-2.5,0.3-3.8,0.6   c-1.3,0.3-2.3,0.7-3.2,1.4c-0.9,0.5-1.4,1.3-1.4,2.2c0,0.2,0.2,0.5,0.5,0.7c0.3,0.2,0.8,0.5,1.3,0.9c0.5,0.3,0.9,0.8,1.3,1.5   c0.4,0.6,0.5,1.5,0.5,2.4c0,1.6-0.4,2.7-1.4,3.7c-0.8,0.9-2.1,1.4-3.6,1.4c-1.6,0-2.8-0.5-3.8-1.7c-0.8-1-1.4-2.5-1.4-4.2   c0-1,0.3-2.3,1-3.6c0.6-1.4,1.8-2.6,3.2-3.8s3.5-2.1,5.9-2.9c2.4-0.8,5.4-1.3,9.1-1.3c4.1,0,7.2,0.4,9.4,1.2   c2.2,0.7,3.9,1.8,4.9,2.9c1,1.3,1.7,2.5,1.8,3.9c0.1,1.4,0.2,2.6,0.2,3.9v28.7c0,1.9,0.1,3.2,0.3,4.2c0.2,0.9,0.9,1.4,2.2,1.4   c1.2,0,2.1-0.6,2.7-1.9C224.8,96.7,225.2,95.5,225.7,94.5z M209.5,77.6c-1.9,0-4.1,0.1-6.6,0.4c-2.4,0.3-4.7,0.8-6.9,1.8   c-2.2,0.8-4,2.2-5.4,3.8s-2.2,3.9-2.2,6.6c0,2.9,0.8,5.3,2.5,7c1.7,1.7,4,2.5,6.7,2.5c1.9,0,3.6-0.2,5-0.8c1.4-0.5,2.8-1.5,4.3-2.7   c0.5-0.5,1-1.2,1.7-2.1s0.9-2.7,0.9-5.2L209.5,77.6L209.5,77.6z M344.5,35.5c1.8,0,3.2-0.6,4.4-1.8c1.2-1.3,1.8-2.7,1.8-4.6   c0-1.6-0.6-2.9-2-4.1c-1.4-1.2-2.7-1.7-4.2-1.7c-1.6,0-2.8,0.5-4.1,1.7c-1.2,1.2-1.8,2.5-1.8,4.1c0,1.8,0.5,3.2,1.6,4.5   C341.3,34.9,342.7,35.5,344.5,35.5z M488.3,98.8c-0.9,0.9-2.2,1.4-3.9,1.4c-1.2,0-2-0.2-2.6-0.5s-1-0.8-1.4-1.4   c-0.3-0.5-0.4-1.2-0.5-1.8c0-0.6-0.1-1.3-0.1-1.8V57.9h10.6v-2.7h-10.6V39.8c-1.6,0.2-3,0.4-4.5,0.4c-1.5,0-3,0.1-4.6,0.1v14.8   h-7.1v2.7h6.8v36c0,1.5,0.1,2.8,0.3,4.1c0.2,1.3,0.6,2.4,1.3,3.4c0.6,0.9,1.6,1.7,2.9,2.2c1.4,0.5,3,0.8,5.1,0.8   c2.4,0,4.9-0.6,7.4-1.9c2.6-1.3,4.4-3,5.5-5.4l-1.9-1.4C490.2,96.8,489.2,97.8,488.3,98.8z M456.7,66c0-2.7-0.5-4.9-1.6-6.5   c-1-1.6-2.4-2.8-3.9-3.7c-1.6-0.8-3.1-1.4-4.7-1.6c-1.7-0.2-3-0.3-4.1-0.3c-4.4,0-7.9,1.2-10.5,3.5c-2.6,2.3-4.7,5.4-6.4,9.2h-0.2   V54c-1.2,0.2-2.2,0.4-3.4,0.6c-1.2,0.2-2.2,0.3-3.4,0.3c-1.2,0.2-2.2,0.2-3.4,0.2c-1.2,0-2.2,0-3.4,0h-2.5v2.7h6.6v42.1h-6.6v2.7   h22.5v-2.7h-6.5V77.6c0-2.3,0.4-4.6,1-7c0.7-2.4,1.8-4.6,3-6.6c1.4-2,2.8-3.6,4.6-4.8c1.7-1.3,3.7-1.9,5.8-1.9   c1.2,0,2.3,0.1,3.1,0.3c0.9,0.2,1.7,0.7,2.4,1.5c0.6,0.7,1.2,1.8,1.5,3s0.5,3,0.5,5.2v32.5h-6.3v2.7h22.1v-2.7h-6.5L456.7,66   L456.7,66z M527.4,55.1v2.7h7.3l-12.1,34.6h-0.2l-11.6-34.6h6.4v-2.7h-21.7v2.7h5.8l16.1,46.5h4.1l16.6-46.5h5.8v-2.7H527.4z    M404.2,69c1.3,3,1.9,6.5,1.9,10.1s-0.6,7-1.9,10.1c-1.3,3-2.9,5.8-5,8.1c-2.1,2.3-4.6,4-7.4,5.3c-2.8,1.3-5.9,1.9-9,1.9   s-6.2-0.6-9-1.9c-2.8-1.3-5.3-3-7.4-5.3c-2.1-2.2-3.8-4.9-5-8.1c-1.3-3-1.9-6.5-1.9-10.1s0.6-7,1.9-10.1c1.3-3,2.9-5.8,5-8.1   c2.1-2.3,4.6-4,7.4-5.2c2.8-1.3,5.9-1.9,9-1.9s6.1,0.6,9,1.9c2.8,1.3,5.3,3,7.4,5.2C401.3,63.3,402.9,66,404.2,69z M395.1,79.1   c0-2.5-0.1-5-0.2-7.7c-0.1-2.7-0.6-5.1-1.4-7.3c-0.8-2.2-2-4-3.7-5.4c-1.7-1.5-4-2.2-7-2.2c-3,0-5.4,0.7-7,2.2s-2.8,3.2-3.7,5.4   c-0.8,2.2-1.3,4.6-1.4,7.3c-0.1,2.7-0.2,5.2-0.2,7.7s0.1,5.2,0.2,7.9c0.1,2.7,0.5,5.1,1.4,7.3c0.8,2.2,2,4,3.7,5.4s4,2.2,7,2.2   c3,0,5.3-0.7,7-2.2c1.7-1.5,2.8-3.2,3.7-5.4c0.8-2.2,1.3-4.6,1.4-7.3C395,84.3,395.1,81.7,395.1,79.1z M349.3,54   c-2.2,0.5-4.4,0.9-6.7,1c-2.3,0.1-4.6,0.2-6.8,0.2h-4v2.7h8.1V100h-8.1v2.7h24.6V100h-7.1L349.3,54L349.3,54z M320.1,66   c0-2.7-0.5-4.9-1.6-6.5c-1-1.6-2.4-2.8-3.9-3.7c-1.5-0.8-3.1-1.4-4.7-1.6c-1.7-0.2-3-0.3-4.1-0.3c-4.4,0-7.9,1.2-10.5,3.5   c-2.6,2.3-4.7,5.4-6.4,9.2h-0.2V18.8c-2.2,0.4-4.4,0.6-6.7,0.8c-2.3,0.2-4.6,0.2-6.8,0.2h-2.5v2.7h6.6v77.4h-6.6v2.7h22.5v-2.7   h-6.5V77.6c0-2.3,0.3-4.6,1-7c0.7-2.4,1.8-4.6,3-6.6c1.4-2,2.8-3.6,4.6-4.8c1.7-1.3,3.7-1.9,5.8-1.9c1.2,0,2.3,0.1,3.1,0.3   c0.9,0.2,1.7,0.7,2.4,1.5c0.6,0.7,1.2,1.8,1.5,3s0.5,3,0.5,5.2v32.5h-6.3v2.7h22.1v-2.7h-6.5L320.1,66L320.1,66z M256.3,74.2   c-4.6-0.9-8.2-1.8-10.8-2.5c-2.6-0.7-4.6-1.5-5.9-2.1s-2.1-1.4-2.3-2c-0.3-0.7-0.4-1.5-0.4-2.3c0-0.3,0.1-0.9,0.3-2   c0.2-1,0.7-2,1.6-3c0.8-1,2-1.9,3.5-2.7c1.5-0.8,3.5-1.2,6-1c3.6,0.2,6.5,1.4,8.6,3.6c2.1,2.3,3.7,5.1,4.5,8.7h2.6V55.1h-2.1   l-2.2,3.2c-3.7-2.9-7.4-4.4-11.2-4.4c-3.2,0-6,0.5-8.1,1.6c-2.1,1-3.8,2.4-4.9,3.9c-1.2,1.6-2,3.1-2.5,4.8   c-0.5,1.7-0.7,3.1-0.7,4.4c0,2.6,0.4,4.7,1.2,6.3c0.8,1.6,1.9,2.7,3.2,3.7c1.4,0.9,2.9,1.7,4.7,2.1c1.8,0.5,3.7,0.9,5.8,1.5   c5,1.3,9.1,2.6,12,3.9c3,1.4,4.5,3.1,4.5,5.4c0,1.6-0.4,3-1,4.3S261,98,259.9,99c-1,0.9-2.4,1.7-3.8,2.1c-1.4,0.4-2.7,0.7-4.1,0.7   c-4.5,0-8.2-1.5-11.1-4.3c-2.9-2.8-4.9-6.5-6.1-10.8h-2.7v16.1h2.6l2.6-4.3c1.8,1.9,3.9,3.4,6.3,4.4c2.4,1,4.9,1.5,7.5,1.5   c2.4,0,4.6-0.4,6.7-1.2c2.1-0.7,3.9-1.9,5.4-3.2c1.6-1.4,2.8-3.1,3.8-5.1c0.9-2,1.4-4.4,1.4-6.9c0-3.9-0.9-6.9-2.7-9   C264.3,76.7,261.1,75.1,256.3,74.2z"/>
	<polygon class="st1" points="591,77.8 568.4,77.8 568.4,55.1 564.3,55.1 564.3,77.8 541.5,77.8 540,81.9 564.3,81.9 564.3,104.6    568.4,104.6 568.4,81.9 589.5,81.9  "/>
	<g>
		<path class="st0" d="M137.1,48.5l-55.4,55.4L26.3,48.5l28.6-28.6h53.6L137.1,48.5z M81.7,95.4l46.8-46.8l-22.6-22.5H57.4    L34.8,48.5L81.7,95.4z"/>
		<path class="st0" d="M92.3,37.9c-0.9,0-1.7-0.3-2.2-0.9c-0.5-0.6-0.7-1.4-0.7-2.4c0-0.4,0.1-0.6,0.3-0.8c0.2-0.2,0.3-0.5,0.3-0.9    c0-0.2-0.2-0.3-0.7-0.3c-0.5,0-0.8-0.1-1-0.1c-1.8,0-3.1,1-4.1,2.9c-1,2-1.6,4.8-1.6,8.4v8.2H89l-0.6,1.7h-6v25.1h5.9v1.7H71.4    v-1.7H77V53.5h-5.5v-1.7H77v-3.6c0-3,0.3-5.8,0.9-7.9c0.6-2.2,1.5-4,2.5-5.4c1-1.5,2.3-2.4,3.8-3.1c1.5-0.6,3-1,4.8-1    c0.7,0,1.5,0.1,2.2,0.2c0.7,0.2,1.4,0.4,1.9,0.8c0.6,0.4,1,0.8,1.4,1.5c0.3,0.6,0.5,1.3,0.5,2.2c0,0.7-0.3,1.3-0.8,1.8    C93.5,37.7,92.9,37.9,92.3,37.9"/>
		<polygon class="st1" points="111.3,51.9 102.1,51.9 102.1,42.5 100.4,42.5 100.4,51.9 91.2,51.9 90.6,53.5 100.4,53.5 100.4,62.7     102.1,62.7 102.1,53.5 110.8,53.5   "/>
	</g>
</g>
</svg>