<svg xmlns="http://www.w3.org/2000/svg" viewBox="0 0 128 128" role="img" aria-labelledby="title desc">
  <title id="title">כאן 26</title>
  <desc id="desc">לוגו עגול לערוץ כאן 26</desc>
  <defs>
    <linearGradient id="bg" x1="18" y1="8" x2="108" y2="118">
      <stop offset="0" stop-color="#32258a"/>
      <stop offset=".54" stop-color="#1b1872"/>
      <stop offset="1" stop-color="#090f3d"/>
    </linearGradient>
    <linearGradient id="edge" x1="16" y1="18" x2="110" y2="112">
      <stop offset="0" stop-color="#ff7a1a"/>
      <stop offset=".45" stop-color="#ffffff"/>
      <stop offset="1" stop-color="#2646d9"/>
    </linearGradient>
  </defs>
  <circle cx="64" cy="64" r="61" fill="url(#edge)"/>
  <circle cx="64" cy="64" r="55" fill="url(#bg)"/>
  <g opacity=".9">
    <rect x="20" y="18" width="4" height="22" rx="2" fill="#2646d9"/>
    <rect x="32" y="12" width="4" height="34" rx="2" fill="#ff7a1a"/>
    <rect x="45" y="20" width="4" height="21" rx="2" fill="#ffffff"/>
    <rect x="83" y="15" width="4" height="31" rx="2" fill="#ff7a1a"/>
    <rect x="97" y="23" width="4" height="20" rx="2" fill="#2646d9"/>
    <rect x="21" y="85" width="4" height="24" rx="2" fill="#ffffff"/>
    <rect x="36" y="93" width="4" height="19" rx="2" fill="#ff7a1a"/>
    <rect x="88" y="87" width="4" height="27" rx="2" fill="#ffffff"/>
    <rect x="103" y="79" width="4" height="35" rx="2" fill="#ff7a1a"/>
  </g>
  <text
    x="75"
    y="58"
    direction="rtl"
    text-anchor="middle"
    font-family="Arial, Helvetica, sans-serif"
    font-size="26"
    font-weight="800"
    fill="#ff7a1a"
  >כאן</text>
  <text
    x="55"
    y="92"
    text-anchor="middle"
    font-family="Arial Black, Arial, Helvetica, sans-serif"
    font-size="44"
    font-weight="900"
    fill="#ffffff"
  >26</text>
</svg>
