<svg xmlns="http://www.w3.org/2000/svg" viewBox="0 0 128 128" role="img" aria-labelledby="title desc">
  <title id="title">כאן מונדיאל</title>
  <desc id="desc">סמל גביע העולם לערוץ כאן מונדיאל</desc>
  <defs>
    <radialGradient id="bg" cx="50%" cy="34%" r="72%">
      <stop offset="0" stop-color="#2f2f2f"/>
      <stop offset=".52" stop-color="#151515"/>
      <stop offset="1" stop-color="#050505"/>
    </radialGradient>
    <linearGradient id="gold" x1="42" y1="12" x2="82" y2="114">
      <stop offset="0" stop-color="#fff3bc"/>
      <stop offset=".19" stop-color="#d7b25b"/>
      <stop offset=".38" stop-color="#8a641f"/>
      <stop offset=".58" stop-color="#f0cc64"/>
      <stop offset=".78" stop-color="#a07824"/>
      <stop offset="1" stop-color="#49310f"/>
    </linearGradient>
    <linearGradient id="shine" x1="50" y1="18" x2="80" y2="92">
      <stop offset="0" stop-color="#fff7ca" stop-opacity=".92"/>
      <stop offset=".42" stop-color="#f0c95d" stop-opacity=".5"/>
      <stop offset="1" stop-color="#6a4614" stop-opacity=".25"/>
    </linearGradient>
    <clipPath id="round">
      <circle cx="64" cy="64" r="62"/>
    </clipPath>
  </defs>

  <g clip-path="url(#round)">
    <rect width="128" height="128" fill="url(#bg)"/>
    <path d="M0 70h128v58H0z" fill="#030303" opacity=".76"/>
    <path d="M0 58h128v23H0z" fill="#0d0d0d" opacity=".62"/>

    <g transform="translate(24 9)">
      <path d="M38.8 5.2c-1.8 0-2.9 2.1-3.9 5.9-2.2 8.4-6.3 14.2-13.8 17.5C8.2 34.1 3.2 44.3 6.3 58.5c2.5 11.7 9 20.1 14.5 27.7 4.5 6.2 5 13.1 1.6 21.2h33.1c-3.4-8.1-2.9-15 1.6-21.2 5.5-7.6 12-16 14.5-27.7 3.1-14.2-1.9-24.4-14.8-29.9-7.5-3.3-11.6-9.1-13.8-17.5-1.1-3.8-2.2-5.9-4.2-5.9z" fill="url(#gold)"/>
      <path d="M39 10.5c-3.9 12.4-12.7 18.9-14.6 34.8-1.2 9.9 3.2 20.4 11.3 30.4 6.6 8.2 6.8 19 1.2 31.7h18.6c-3.4-8.1-2.9-15 1.6-21.2 5.5-7.6 12-16 14.5-27.7 3.1-14.2-1.9-24.4-14.8-29.9-9.1-4-13.4-11.6-15.4-22.3-.6 1.6-1.3 3-2.4 4.2z" fill="url(#shine)"/>
      <path d="M25.4 40.3c2.2-8.1 7.5-15.7 15.4-22.9-6.9 13.8-5.9 26.1 3.1 36.8-9.2-2.1-15.4-6.8-18.5-13.9z" fill="#fff0a5" opacity=".58"/>
      <path d="M49.5 26.8c8.4 6.9 11.3 15.9 8.7 26.9-2.2-9.3-7.2-17.1-15-23.4z" fill="#4d3110" opacity=".38"/>
      <path d="M23.3 99.9h31.4l8.2 9.2H15.1z" fill="#9d7425"/>
      <path d="M10.6 108.7h56.8v8.9H10.6z" fill="#d6ad43"/>
      <path d="M18.6 117.6h40.8v6.9H18.6z" fill="#3c2810"/>
    </g>
  </g>

  <circle cx="64" cy="64" r="62" fill="none" stroke="#111" stroke-width="4"/>
</svg>
