<svg xmlns="http://www.w3.org/2000/svg" viewBox="0 0 128 128" role="img" aria-labelledby="title desc">
  <title id="title">מונדיאל 11</title>
  <desc id="desc">לוגו עגול לערוץ מונדיאל 11</desc>
  <defs>
    <radialGradient id="bg" cx="35%" cy="25%" r="75%">
      <stop offset="0" stop-color="#1fbf8f"/>
      <stop offset="0.55" stop-color="#123c5b"/>
      <stop offset="1" stop-color="#071421"/>
    </radialGradient>
    <linearGradient id="ring" x1="18" y1="12" x2="110" y2="116">
      <stop offset="0" stop-color="#f4d35e"/>
      <stop offset="0.48" stop-color="#ffffff"/>
      <stop offset="1" stop-color="#2ec4b6"/>
    </linearGradient>
  </defs>
  <circle cx="64" cy="64" r="61" fill="url(#ring)"/>
  <circle cx="64" cy="64" r="55" fill="url(#bg)"/>
  <path
    d="M39 37c9-12 28-17 43-8 17 10 21 33 8 49-11 13-32 17-47 6-15-12-17-32-4-47z"
    fill="none"
    stroke="#ffffff"
    stroke-opacity=".2"
    stroke-width="5"
  />
  <circle cx="42" cy="35" r="5" fill="#ffffff"/>
  <path d="M42 30l4 3-2 5h-5l-2-5z" fill="#111827"/>
  <path d="M36 36l-5 8m16-8l8 5m-14 0l-1 9" fill="none" stroke="#ffffff" stroke-width="2" stroke-linecap="round"/>
  <text
    x="64"
    y="62"
    direction="rtl"
    text-anchor="middle"
    font-family="Arial, Helvetica, sans-serif"
    font-size="21"
    font-weight="800"
    fill="#ffffff"
  >מונדיאל</text>
  <text
    x="64"
    y="96"
    text-anchor="middle"
    font-family="Arial Black, Arial, Helvetica, sans-serif"
    font-size="42"
    font-weight="900"
    fill="#f4d35e"
    stroke="#071421"
    stroke-width="2"
    paint-order="stroke"
  >11</text>
</svg>
