<?xml version="1.0" encoding="UTF-8" standalone="no"?>
<svg
   xmlns:dc="http://purl.org/dc/elements/1.1/"
   xmlns:cc="http://creativecommons.org/ns#"
   xmlns:rdf="http://www.w3.org/1999/02/22-rdf-syntax-ns#"
   xmlns:svg="http://www.w3.org/2000/svg"
   xmlns="http://www.w3.org/2000/svg"
   id="svg8"
   version="1.1"
   viewBox="0 0 135.46666 158.87186"
   height="158.87186mm"
   width="135.46666mm">
  <defs
     id="defs2">
    <linearGradient
       x1="0"
       y1="0"
       x2="1"
       y2="0"
       gradientUnits="userSpaceOnUse"
       gradientTransform="matrix(0,235.109,235.109,0,104.481,149.681)"
       spreadMethod="pad"
       id="linearGradient967">
      <stop
         style="stop-opacity:1;stop-color:#c62127"
         offset="0"
         id="stop957" />
      <stop
         style="stop-opacity:1;stop-color:#ea1c24"
         offset="0.36127168"
         id="stop959" />
      <stop
         style="stop-opacity:1;stop-color:#ea1c24"
         offset="0.5"
         id="stop961" />
      <stop
         style="stop-opacity:1;stop-color:#ed1c24"
         offset="0.71008403"
         id="stop963" />
      <stop
         style="stop-opacity:1;stop-color:#ed1c24"
         offset="1"
         id="stop965" />
    </linearGradient>
  </defs>
  <metadata
     id="metadata5">
    <rdf:RDF>
      <cc:Work
         rdf:about="">
        <dc:format>image/svg+xml</dc:format>
        <dc:type
           rdf:resource="http://purl.org/dc/dcmitype/StillImage" />
        <dc:title></dc:title>
      </cc:Work>
    </rdf:RDF>
  </metadata>
  <g
     transform="translate(23.249616,-147.08164)"
     id="layer1">
    <g
       transform="matrix(1.182754,0,0,1.182754,4.2489603,-55.914226)"
       id="g1067">
      <g
         id="g949"
         transform="matrix(0.35277777,0,0,-0.35277777,-24.664608,307.37519)">
        <g
           id="g955">
          <path
             id="path969"
             style="fill:url(#linearGradient967);stroke:none"
             d="M 4.439,149.681 H 204.523 V 384.79 H 4.439 Z" />
        </g>
      </g>
      <path
         d="M 41.746866,210.94691 C 38.820574,202.2901 32.440588,196.47915 32.440588,196.47915 H 18.366872 c 0,0 12.225866,9.25336 13.627099,19.05634 1.467203,9.26254 -2.240139,16.52658 -10.951633,21.02838 -8.711494,4.5018 -19.5890438,1.58362 -25.2253742,-5.22746 -4.4255972,-5.34846 -4.7836666,-12.04454 -4.754386,-14.67203 0.00811,-0.7179 0,-1.12818 0,-1.12853 H 2.1031109 v 1.91029 c 0,0 -0.2014362,4.77238 3.1210249,7.90116 3.5969221,3.27308 8.6204772,3.10903 11.5682882,1.25871 0,0 3.602214,-1.77129 4.631973,-6.4209 1.029758,-4.64962 -2.148064,-8.11566 -3.074106,-9.3405 -0.926042,-1.2252 -6.944783,-7.42068 -6.944783,-7.42068 v 12.11156 H 2.104522 V 186.95062 H 37.752716 V 175.37774 H -8.9374222 v 40.15775 H -19.948322 c 0,0 0,0.15135 0,0.43145 -0.02293,2.3114 0.107244,13.39286 6.763455,21.83307 0,0 8.0334558,11.45151 25.378833,11.64096 0,0 17.847733,0.65087 27.511022,-16.48743 4.121502,-7.31026 4.218516,-15.56773 2.041878,-22.00663"
         style="fill:#ffffff;fill-opacity:1;fill-rule:nonzero;stroke:none;stroke-width:0.35277778"
         id="path971" />
      <path
         d="m 91.285331,228.49726 c 0,14.01833 -11.363677,25.382 -25.382008,25.382 -14.017977,0 -25.381655,-11.36367 -25.381655,-25.382 0,-14.01798 11.363678,-25.38166 25.381655,-25.38166 14.018331,0 25.382008,11.36368 25.382008,25.38166"
         style="fill:#000000;fill-opacity:1;fill-rule:nonzero;stroke:none;stroke-width:0.35277778"
         id="path973" />
      <path
         d="m 87.777662,229.39014 h -3.968397 c -0.384175,1.28587 -1.5748,2.22391 -2.985559,2.22391 -1.721202,0 -3.116791,-1.39524 -3.116791,-3.11679 0,-1.72121 1.395589,-3.11644 3.116791,-3.11644 1.410759,0 2.601384,0.93768 2.985559,2.22391 h 3.968397 c -0.438503,-3.45123 -3.383845,-6.11999 -6.953956,-6.11999 -3.872794,0 -7.012516,3.13972 -7.012516,7.01252 0,3.87314 3.139722,7.01251 7.012516,7.01251 3.570111,0 6.515453,-2.66876 6.953956,-6.11963"
         style="fill:#f2f2f2;fill-opacity:1;fill-rule:nonzero;stroke:none;stroke-width:0.35277778"
         id="path975" />
      <path
         d="m 50.98294,231.61405 c -1.721202,0 -3.116438,-1.39524 -3.116438,-3.11679 0,-1.72121 1.395236,-3.11644 3.116438,-3.11644 1.721556,0 3.116792,1.39523 3.116792,3.11644 0,1.72155 -1.395236,3.11679 -3.116792,3.11679 z m 0,-10.12931 c -3.872794,0 -7.012163,3.13972 -7.012163,7.01252 0,3.87314 3.139369,7.01251 7.012163,7.01251 2.035881,0 3.116792,-1.32115 3.116792,-1.32115 v 1.20756 h 3.895725 v -6.89892 c 0,-3.8728 -3.13937,-7.01252 -7.012517,-7.01252"
         style="fill:#f2f2f2;fill-opacity:1;fill-rule:nonzero;stroke:none;stroke-width:0.35277778"
         id="path977" />
      <path
         d="m 65.903323,231.61405 c -1.721202,0 -3.116791,-1.39524 -3.116791,-3.11679 0,-1.72121 1.395589,-3.11644 3.116791,-3.11644 1.721556,0 3.116792,1.39523 3.116792,3.11644 0,1.72155 -1.395236,3.11679 -3.116792,3.11679 z m 0,-10.12931 c -1.889125,0 -3.116791,1.02517 -3.116791,1.02517 v -4.44994 h -3.895725 v 10.43729 c 0,3.87314 3.139722,7.01251 7.012516,7.01251 3.873147,0 7.012517,-3.13937 7.012517,-7.01251 0,-3.8728 -3.13937,-7.01252 -7.012517,-7.01252"
         style="fill:#f2f2f2;fill-opacity:1;fill-rule:nonzero;stroke:none;stroke-width:0.35277778"
         id="path979" />
      <path
         d="m -19.382114,297.79304 v 6.17784 h 2.766131 c 1.920875,0 2.881489,-1.01423 2.881489,-3.0427 0,-1.07562 -0.315031,-1.88243 -0.944739,-2.42076 -0.569031,-0.47625 -1.32962,-0.71438 -2.282472,-0.71438 z m 0,-6.96172 v 5.44019 h 2.328334 c 1.859138,0 2.789061,-0.91405 2.789061,-2.7432 0,-1.79811 -0.944739,-2.69699 -2.835275,-2.69699 z m -2.028472,14.79938 v -16.4592 h 5.048603 c 1.213555,0 2.18193,0.29987 2.904419,0.89888 0.875947,0.72249 1.314097,1.82915 1.314097,3.31964 0,0.7687 -0.219075,1.4792 -0.657225,2.13219 -0.43815,0.65334 -1.018116,1.08761 -1.740605,1.30246 v 0.0462 c 1.951567,0.46108 2.927703,1.81363 2.927703,4.0573 0,3.13478 -1.775178,4.70252 -5.325181,4.70252 h -4.471811"
         style="fill:#9d9d9d;fill-opacity:1;fill-rule:nonzero;stroke:none;stroke-width:0.35277778"
         id="path981" />
      <path
         d="m -4.3749473,290.50853 c -1.2911667,0 -2.1752278,0.67663 -2.651125,2.02883 -0.3538361,0.99906 -0.5305777,2.62008 -0.5305777,4.86374 0,2.24402 0.1763888,3.86539 0.5302249,4.8641 0.47625,1.35255 1.3603111,2.02848 2.651125,2.02848 1.2908138,0 2.1745222,-0.67593 2.6511249,-2.02848 0.3531306,-0.99871 0.530225,-2.62008 0.530225,-4.8641 0,-2.24366 -0.1767416,-3.86468 -0.530225,-4.86374 -0.4766027,-1.3522 -1.3603111,-2.02883 -2.6507721,-2.02883 z m 0,-1.65982 c 2.058811,0 3.51119711,0.90699 4.35645265,2.72027 0.63006109,1.3522 0.94509164,3.29636 0.94509164,5.83212 0,2.53577 -0.31503055,4.47993 -0.94509164,5.83213 -0.84525554,1.81327 -2.29764165,2.72027 -4.35680545,2.71991 -2.0595166,0 -3.5119027,-0.90664 -4.3568055,-2.71991 -0.6304138,-1.3522 -0.9450916,-3.29636 -0.9450916,-5.83213 0,-2.53576 0.3146778,-4.47992 0.9450916,-5.83212 0.8449028,-1.81328 2.2972889,-2.72027 4.3571583,-2.72027"
         style="fill:#9d9d9d;fill-opacity:1;fill-rule:nonzero;stroke:none;stroke-width:0.35277778"
         id="path983" />
      <path
         d="m 12.383761,293.43623 h -2.028473 c 0,-1.95156 -0.8530162,-2.9277 -2.5590495,-2.9277 -1.8132777,0 -2.7199166,0.89147 -2.7199166,2.67406 0,1.26047 0.6685139,2.18228 2.0055416,2.76613 1.2446,0.4766 2.4969611,0.9532 3.7574365,1.42945 1.337027,0.76835 2.005541,1.99778 2.005541,3.6883 0,1.73672 -0.561269,3.02789 -1.68275,3.87279 -0.906991,0.67627 -2.0517553,1.01424 -3.4349969,1.01424 -1.8439694,0 -3.1580666,-0.47625 -3.9419388,-1.42911 -0.6914445,-0.84525 -1.0371667,-2.1978 -1.0371667,-4.05729 h 2.0284722 c 0,1.21426 0.14605,2.08244 0.43815,2.60491 0.4455583,0.81456 1.3289138,1.22167 2.6507721,1.22167 0.8145639,0 1.4947195,-0.26882 2.0401139,-0.80681 0.5453942,-0.53763 0.8184442,-1.23684 0.8184442,-2.09761 0,-1.26013 -0.668514,-2.19781 -2.0055414,-2.81235 -1.2449528,-0.47625 -2.4976666,-0.96061 -3.757436,-1.45238 -1.3370278,-0.78388 -2.0055417,-2.02883 -2.0055417,-3.73451 0,-1.12148 0.2843389,-2.06657 0.8530167,-2.83527 0.8145639,-1.13736 2.1357166,-1.70604 3.9648694,-1.70604 3.027539,0 4.564592,1.52929 4.610453,4.58752"
         style="fill:#9d9d9d;fill-opacity:1;fill-rule:nonzero;stroke:none;stroke-width:0.35277778"
         id="path985" />
      <path
         d="m 19.898633,290.96961 v 14.66109 h -2.028472 v -14.66109 h -4.126442 v -1.79811 h 10.304286 v 1.79811 h -4.149372"
         style="fill:#9d9d9d;fill-opacity:1;fill-rule:nonzero;stroke:none;stroke-width:0.35277778"
         id="path987" />
      <path
         d="m 30.640716,290.50853 c -1.290461,0 -2.174522,0.67663 -2.650772,2.02883 -0.353836,0.99906 -0.530225,2.62008 -0.530225,4.86374 0,2.24402 0.176389,3.86539 0.530225,4.8641 0.475897,1.35255 1.359958,2.02848 2.650772,2.02848 1.291166,0 2.174522,-0.67593 2.651125,-2.02848 0.353483,-0.99871 0.530225,-2.62008 0.530225,-4.8641 0,-2.24366 -0.176742,-3.86468 -0.530225,-4.86374 -0.476603,-1.3522 -1.359959,-2.02883 -2.651125,-2.02883 z m 0,-1.65982 c 2.059516,0 3.51155,0.90699 4.357158,2.72027 0.630061,1.35255 0.945092,3.29636 0.945092,5.83212 0,2.53612 -0.315031,4.47993 -0.945092,5.83213 -0.845608,1.81363 -2.297994,2.72027 -4.357158,2.72027 -2.059164,0 -3.51155,-0.90664 -4.356806,-2.72027 -0.630061,-1.3522 -0.945091,-3.29601 -0.945091,-5.83213 3.52e-4,-2.53576 0.31503,-4.47992 0.945091,-5.83212 0.845256,-1.81328 2.297642,-2.72027 4.356806,-2.72027"
         style="fill:#9d9d9d;fill-opacity:1;fill-rule:nonzero;stroke:none;stroke-width:0.35277778"
         id="path989" />
      <path
         d="m 38.386304,305.6307 3.53e-4,-16.4592 h 2.643011 l 5.471231,13.73929 V 289.1715 h 2.028472 v 16.4592 h -2.805289 l -5.308953,-13.32406 v 13.32406 h -2.028825"
         style="fill:#9d9d9d;fill-opacity:1;fill-rule:nonzero;stroke:none;stroke-width:0.35277778"
         id="path991" />
      <path
         d="m -19.40575,285.14313 -3.843866,-21.77979 h 5.124802 l 1.891595,15.49576 h 0.06103 l 2.257072,-15.49576 h 4.7586198 l 2.4401638,15.49576 h 0.061031 l 1.830211,-15.49576 H 0.11661923 L -3.665864,285.14313 h -5.6737249 l -2.2267331,-15.46471 h -0.06103 l -2.104672,15.46471 h -5.673725"
         style="fill:#000000;fill-opacity:1;fill-rule:nonzero;stroke:none;stroke-width:0.35277778"
         id="path993" />
      <path
         d="m 15.948227,270.92901 h -4.941358 c 0,-1.66828 -0.132644,-2.82716 -0.396522,-3.47803 -0.305153,-0.73237 -0.8650113,-1.09855 -1.6778113,-1.09855 -0.9761361,0 -1.6069027,0.56021 -1.8912416,1.67781 -0.2240139,0.93662 -0.3354917,2.92841 -0.3354917,5.97923 0,3.37608 0.1220611,5.54178 0.3658306,6.49746 0.2850444,1.09855 0.9457972,1.64677 1.9829638,1.64677 0.8745361,0 1.4643802,-0.49813 1.7691802,-1.49437 0.223661,-0.75212 0.345723,-2.10538 0.366184,-4.05659 h 4.941711 v 0.76165 c 0,2.64371 -0.478014,4.59669 -1.434042,5.85681 -1.20015,1.56633 -3.27413,2.3488 -6.2226471,2.3488 -2.9894388,0 -4.992511,-1.08727 -6.0092165,-3.2639 -0.7119055,-1.56563 -1.0678583,-4.30036 -1.0678583,-8.20456 0,-3.61985 0.3559528,-6.18207 1.0678583,-7.68738 1.0978444,-2.3181 3.2642527,-3.47803 6.4971082,-3.47803 2.3184554,0 4.0467134,0.53904 5.1858334,1.61678 1.199444,1.13912 1.799519,2.95945 1.799519,5.461 v 0.9151"
         style="fill:#000000;fill-opacity:1;fill-rule:nonzero;stroke:none;stroke-width:0.35277778"
         id="path995" />
      <path
         d="m 21.53023,285.14313 -4.788958,-21.77979 h 5.490633 l 2.592916,16.83808 h 0.06068 l 2.623609,-16.83808 h 5.490986 l -4.941359,21.77979 H 21.53023"
         style="fill:#000000;fill-opacity:1;fill-rule:nonzero;stroke:none;stroke-width:0.35277778"
         id="path997" />
      <path
         d="m 39.77131,275.47314 v 5.88716 h 1.555044 c 1.850673,0 2.776714,-0.94509 2.776714,-2.83563 0,-2.03376 -0.89535,-3.05153 -2.684991,-3.05153 z m 0,-8.32732 v 4.91102 h 1.402997 c 1.666875,0 2.501195,-0.85407 2.501195,-2.56187 0,-1.56598 -0.823384,-2.34915 -2.47015,-2.34915 z m -5.12445,17.99731 v -21.77979 h 7.961489 c 1.910997,0 3.405364,0.43745 4.483805,1.31233 1.138767,0.93522 1.708856,2.28671 1.708856,4.0566 0,1.28164 -0.310797,2.3689 -0.930628,3.2639 -0.620536,0.89499 -1.449564,1.44392 -2.485672,1.64676 v 0.0614 c 2.683933,0.4071 4.025194,2.20697 4.025194,5.39961 0,4.02625 -2.398536,6.0392 -7.197725,6.0392 H 34.64686"
         style="fill:#000000;fill-opacity:1;fill-rule:nonzero;stroke:none;stroke-width:0.35277778"
         id="path999" />
    </g>
  </g>
</svg>
